<svg xmlns="http://www.w3.org/2000/svg" height="1332.16" width="1332.08" xml:space="preserve"><defs><clipPath id="a" clipPathUnits="userSpaceOnUse"><path d="M8320.6 5108.49c0-1791.66-1452.43-3244.09-3244.09-3244.09-1791.67 0-3244.1 1452.43-3244.1 3244.09 0 1791.67 1452.43 3244.1 3244.1 3244.1 1791.66 0 3244.09-1452.43 3244.09-3244.1"/></clipPath></defs><path style="fill:#ebf0f2;fill-opacity:1;fill-rule:nonzero;stroke:none" d="M0 0h9990.61v9991.23H0z" transform="matrix(.13333 0 0 -.13333 0 1332.16)"/><path style="fill:#d3cbcb;fill-opacity:1;fill-rule:nonzero;stroke:none" d="M5076.51 8352.59c-913.04 0-1737.83-377.35-2327.36-984.43-18.15-17.84-36.11-35.9-53.84-54.16-18.11-17.79-36-35.8-53.68-54.01a3163.164 3163.164 0 0 1-54.18-54.49 3229.642 3229.642 0 0 1-53.8-54.12 3274.632 3274.632 0 0 1-53.85-54.18 3280.326 3280.326 0 0 1-53.9-54.22 3278.15 3278.15 0 0 1-53.87-54.21c-18.1-17.76-35.97-35.75-53.63-53.94a3281.546 3281.546 0 0 1-54.23-54.55 3223.061 3223.061 0 0 1-53.74-54.07c-18.19-17.86-36.14-35.94-53.91-54.22a3317.52 3317.52 0 0 1-53.87-54.21c-18.15-17.84-36.11-35.9-53.84-54.16-18.11-17.8-36-35.8-53.68-54.01a3236.72 3236.72 0 0 1-54.18-54.49 3230.24 3230.24 0 0 1-53.8-54.13 3234.798 3234.798 0 0 1-53.84-54.17 3243.049 3243.049 0 0 1-53.91-54.23 3277.534 3277.534 0 0 1-53.87-54.2 3247.036 3247.036 0 0 1-53.63-53.94 3280.95 3280.95 0 0 1-54.22-54.55 3186.656 3186.656 0 0 1-53.75-54.08 3241.624 3241.624 0 0 1-53.9-54.22 3316.656 3316.656 0 0 1-53.87-54.2 3197.304 3197.304 0 0 1-53.84-54.17 3142.554 3142.554 0 0 1-53.69-54.01 3313.168 3313.168 0 0 1-54.18-54.48 3229.401 3229.401 0 0 1-53.79-54.13 3161.618 3161.618 0 0 1-53.85-54.18 3241.624 3241.624 0 0 1-53.9-54.22 3357.843 3357.843 0 0 1-53.88-54.2 3247.642 3247.642 0 0 1-53.63-53.95 3299.577 3299.577 0 0 1-54.22-54.54 3284.707 3284.707 0 0 1-53.703-54.04c-18.211-17.89-36.207-36-53.989-54.31a3317.204 3317.204 0 0 1-53.875-54.2 3244.89 3244.89 0 0 1-53.761-54.09 3232.828 3232.828 0 0 1-53.762-54.08 3267.872 3267.872 0 0 1-54.055-54.37 3295.53 3295.53 0 0 1-53.926-54.25 3259.712 3259.712 0 0 1-53.754-54.09c-18.207-17.89-36.207-36-53.988-54.31a3254.044 3254.044 0 0 1-53.871-54.2 3226.484 3226.484 0 0 1-53.547-53.87 3266.198 3266.198 0 0 1-54.265-54.58 3203.162 3203.162 0 0 1-53.7-54.03c-18.214-17.89-36.211-36-53.992-54.31a3286.054 3286.054 0 0 1-53.875-54.21 3229.187 3229.187 0 0 1-53.765-54.08 3230.844 3230.844 0 0 1-53.754-54.08c-18.235-17.92-35.95-36.04-53.75-54.37l-1.243-1.55V1.23H4572.06c10.07 10 20.24 19.508 30.19 29.77 18.17 17.852 36.13 35.578 53.88 53.86 18.17 17.851 36.13 35.769 53.87 54.05 18.26 17.93 36.28 35.988 54.1 54.34a3209.67 3209.67 0 0 1 53.87 54.16 3281.988 3281.988 0 0 1 53.66 53.969 3229.872 3229.872 0 0 1 54.09 54.402 3286.174 3286.174 0 0 1 53.43 53.75 3162.793 3162.793 0 0 1 54.33 54.641 3197.093 3197.093 0 0 1 53.87 54.199A3309.143 3309.143 0 0 1 5141 572.34a3258.61 3258.61 0 0 1 54.1 54.43 3345.468 3345.468 0 0 1 53.65 53.968 3243.437 3243.437 0 0 1 53.88 54.203 3223.734 3223.734 0 0 1 53.87 54.2 3147.193 3147.193 0 0 1 54.1 54.418 3234.067 3234.067 0 0 1 53.87 54.191 3306.691 3306.691 0 0 1 53.66 53.988 3237.985 3237.985 0 0 1 54.09 54.412c18.01 17.72 35.82 35.64 53.43 53.76 18.33 18 36.44 36.21 54.32 54.64 18.18 17.86 36.13 35.93 53.88 54.2 18.09 17.78 35.97 35.78 53.65 53.99 18.25 17.91 36.28 36.06 54.09 54.41 18.1 17.78 35.98 35.78 53.65 53.98a3201.67 3201.67 0 0 1 53.89 54.19c18.17 17.86 36.11 35.93 53.87 54.2 18.25 17.92 36.28 36.08 54.1 54.43 18.17 17.85 36.13 35.92 53.87 54.19 18.09 17.79 35.97 35.79 53.65 53.98 18.25 17.93 36.28 36.07 54.1 54.42 18.02 17.71 35.82 35.63 53.43 53.75 18.32 18 36.43 36.22 54.33 54.64 18.17 17.86 36.13 35.93 53.86 54.21 18.1 17.79 35.98 35.78 53.65 53.97 18.26 17.93 36.28 36.08 54.11 54.42 18.08 17.78 35.96 35.78 53.64 53.98 18.18 17.86 36.13 35.92 53.88 54.19 18.17 17.86 36.13 35.92 53.88 54.21a3190 3190 0 0 1 54.09 54.42c18.19 17.86 36.14 35.92 53.88 54.2 18.09 17.78 35.97 35.78 53.64 53.98a3190 3190 0 0 1 54.1 54.41 3344.29 3344.29 0 0 1 53.44 53.76c18.31 17.99 36.43 36.21 54.32 54.64 18.18 17.85 36.13 35.93 53.88 54.2 18.08 17.78 35.96 35.78 53.64 53.99 18.26 17.92 36.29 36.06 54.1 54.41 18.09 17.78 35.98 35.78 53.65 53.97 18.18 17.86 36.13 35.92 53.88 54.2 18.17 17.86 36.12 35.93 53.88 54.2a3190 3190 0 0 1 54.09 54.42c598.92 588.58 970.51 1407.73 970.51 2313.78 0 1791.67-1452.43 3244.1-3244.09 3244.1" transform="matrix(.13333 0 0 -.13333 0 1332.16)"/><path style="fill:#e82332;fill-opacity:1;fill-rule:nonzero;stroke:none" d="M8320.6 5108.49c0-1791.66-1452.43-3244.09-3244.09-3244.09-1791.67 0-3244.1 1452.43-3244.1 3244.09 0 1791.67 1452.43 3244.1 3244.1 3244.1 1791.66 0 3244.09-1452.43 3244.09-3244.1" transform="matrix(.13333 0 0 -.13333 0 1332.16)"/><g clip-path="url(#a)" transform="matrix(.13333 0 0 -.13333 0 1332.16)"><path style="fill:#a71a28;fill-opacity:1;fill-rule:nonzero;stroke:none" d="M4839.27 1872.94c-6.98.5-13.98 1.03-20.95 1.58a259.047 259.047 0 0 1 42.18 24.46 260.385 260.385 0 0 0-21.23-26.04"/><path style="fill:#a61a28;fill-opacity:1;fill-rule:nonzero;stroke:none" d="M4818.32 1874.52c-100.54 7.92-199.81 20.42-297.57 37.3h250.04c56.18 0 108.18 17.82 150.69 48.12a261.21 261.21 0 0 0-60.98-60.96 259.047 259.047 0 0 0-42.18-24.46"/><path style="fill:#a61a28;fill-opacity:1;fill-rule:nonzero;stroke:none" d="M4770.79 1911.82h-250.04a3229.168 3229.168 0 0 0-278.99 60.98h590.03c56.18 0 108.2 17.83 150.71 48.14a261.55 261.55 0 0 0-61.02-61c-42.51-30.3-94.51-48.12-150.69-48.12"/><path style="fill:#a61a27;fill-opacity:1;fill-rule:nonzero;stroke:none" d="M4831.79 1972.8h-590.03a3219.413 3219.413 0 0 0-202.56 60.98h853.59c56.17 0 108.19 17.83 150.69 48.13a261.443 261.443 0 0 0-60.98-60.97c-42.51-30.31-94.53-48.14-150.71-48.14"/><path style="fill:#a61a27;fill-opacity:1;fill-rule:nonzero;stroke:none" d="M4892.79 2033.78H4039.2a3206.739 3206.739 0 0 0-165.67 60.98h1080.25c56.18 0 108.19 17.82 150.69 48.12a261.295 261.295 0 0 0-60.99-60.97c-42.5-30.3-94.52-48.13-150.69-48.13"/><path style="fill:#a61a27;fill-opacity:1;fill-rule:nonzero;stroke:none" d="M4953.78 2094.76H3873.53a3234.472 3234.472 0 0 0-142.59 60.98h1283.85c56.18 0 108.2 17.83 150.7 48.14a261.169 261.169 0 0 0-61.02-61c-42.5-30.3-94.51-48.12-150.69-48.12"/><path style="fill:#a61a27;fill-opacity:1;fill-rule:nonzero;stroke:none" d="M5014.79 2155.74H3730.94a3224.15 3224.15 0 0 0-126.27 60.98h1471.11c56.18 0 108.2 17.83 150.7 48.13a261.104 261.104 0 0 0-60.99-60.97c-42.5-30.31-94.52-48.14-150.7-48.14"/><path style="fill:#a61a27;fill-opacity:1;fill-rule:nonzero;stroke:none" d="M5075.78 2216.72H3604.67a3242.645 3242.645 0 0 0-113.9 60.98h1646.01c56.18 0 108.2 17.83 150.71 48.14a261.274 261.274 0 0 0-61.01-60.99c-42.5-30.3-94.52-48.13-150.7-48.13M1861.85 4669.63c-.83 6.11-1.64 12.21-2.43 18.34 8.01 7.38 16.49 14.28 25.39 20.62a260.035 260.035 0 0 1-22.96-38.96"/><path style="fill:#a61a27;fill-opacity:1;fill-rule:nonzero;stroke:none" d="M5136.78 2277.7H3490.77a3246.586 3246.586 0 0 0-104.03 60.98h1811.04c56.17 0 108.18 17.82 150.68 48.12a261.549 261.549 0 0 0-60.97-60.96c-42.51-30.31-94.53-48.14-150.71-48.14M1897.64 4458.03a3228.549 3228.549 0 0 0-35.79 211.6 260.035 260.035 0 0 0 22.96 38.96 261.232 261.232 0 0 0 61 60.99c-30.33-42.51-48.17-94.55-48.17-150.74v-160.81"/><path style="fill:#a51a27;fill-opacity:1;fill-rule:nonzero;stroke:none" d="M5197.78 2338.68H3386.74a3257.67 3257.67 0 0 0-95.93 60.98h1967.97c56.17 0 108.19 17.83 150.7 48.13a261.317 261.317 0 0 0-61.02-60.99c-42.5-30.3-94.51-48.12-150.68-48.12M1958.64 4209.32a3217.437 3217.437 0 0 0-61 248.71v160.81c0 56.19 17.84 108.23 48.17 150.74a261.422 261.422 0 0 0 61.01 60.98c-30.33-42.51-48.18-94.55-48.18-150.75v-470.49"/><path style="fill:#a51a27;fill-opacity:1;fill-rule:nonzero;stroke:none" d="M5258.78 2399.66H3290.81a3255.253 3255.253 0 0 0-89.07 60.98h2118.03c56.19 0 108.21 17.84 150.72 48.15a261.317 261.317 0 0 0-61.01-61c-42.51-30.3-94.53-48.13-150.7-48.13M2019.64 4019.71a3211.326 3211.326 0 0 0-61 189.61v470.49c0 56.2 17.85 108.24 48.18 150.75a261.167 261.167 0 0 0 60.97 60.96c-30.31-42.51-48.15-94.53-48.15-150.72v-721.09"/><path style="fill:#a51a27;fill-opacity:1;fill-rule:nonzero;stroke:none" d="M5319.77 2460.64H3201.74c-28.1 19.93-55.72 40.19-83.14 60.98h2262.17c56.18 0 108.2 17.83 150.7 48.13a261.21 261.21 0 0 0-60.98-60.96c-42.51-30.31-94.53-48.15-150.72-48.15M2080.64 3861.73a3219.428 3219.428 0 0 0-61 157.98v721.09c0 56.19 17.84 108.21 48.15 150.72a261.55 261.55 0 0 0 61.02 61c-30.33-42.51-48.17-94.55-48.17-150.74v-940.05"/><path style="fill:#a51a27;fill-opacity:1;fill-rule:nonzero;stroke:none" d="M5380.77 2521.62H3118.6a3238.43 3238.43 0 0 0-77.97 60.99h2401.15c56.17 0 108.18 17.82 150.69 48.12a261.57 261.57 0 0 0-61-60.98c-42.5-30.3-94.52-48.13-150.7-48.13M2141.64 3724.43a3219.574 3219.574 0 0 0-61 137.3v940.05c0 56.19 17.84 108.23 48.17 150.74a261.062 261.062 0 0 0 60.99 60.96c-30.32-42.5-48.16-94.53-48.16-150.72V3724.43"/><path style="fill:#a41a27;fill-opacity:1;fill-rule:nonzero;stroke:none" d="M5441.78 2582.61H3040.63a3266.065 3266.065 0 0 0-73.33 60.97h2535.47c56.18 0 108.2 17.83 150.7 48.13a261.38 261.38 0 0 0-61-60.98c-42.51-30.3-94.52-48.12-150.69-48.12M2202.64 3602.07a3225.83 3225.83 0 0 0-61 122.36v1138.33c0 56.19 17.84 108.22 48.16 150.72 16.8 23.57 37.44 44.2 61.01 61-30.33-42.51-48.17-94.54-48.17-150.74V3602.07"/><path style="fill:#a41a27;fill-opacity:1;fill-rule:nonzero;stroke:none" d="M5502.77 2643.58H2967.3a3258.19 3258.19 0 0 0-69.19 60.98h2665.66c56.17 0 108.19 17.83 150.7 48.13a261.57 261.57 0 0 0-61-60.98c-42.5-30.3-94.52-48.13-150.7-48.13M2263.63 3491.26a3230.75 3230.75 0 0 0-60.99 110.81v1321.67c0 56.2 17.84 108.23 48.17 150.74a261.486 261.486 0 0 0 60.99 60.97c-30.33-42.51-48.17-94.53-48.17-150.73V3491.26"/><path style="fill:#a41a27;fill-opacity:1;fill-rule:nonzero;stroke:none" d="M5563.77 2704.56H2898.11a3250.172 3250.172 0 0 0-65.44 60.99h2792.1c56.18 0 108.2 17.83 150.7 48.13a261.232 261.232 0 0 0-61-60.99c-42.51-30.3-94.53-48.13-150.7-48.13M2324.63 3389.73c-20.97 33.5-41.23 67.23-61 101.53v1493.46c0 56.2 17.84 108.22 48.17 150.73a261.422 261.422 0 0 0 61 60.99c-30.33-42.51-48.17-94.55-48.17-150.74V3389.73"/><path style="fill:#a41a27;fill-opacity:1;fill-rule:nonzero;stroke:none" d="M5624.77 2765.55h-2792.1a3269.074 3269.074 0 0 0-61.98 60.97h2915.07c56.18 0 108.2 17.83 150.7 48.13a261.295 261.295 0 0 0-60.99-60.97c-42.5-30.3-94.52-48.13-150.7-48.13M2385.63 3295.91a3273.558 3273.558 0 0 0-61 93.82V5045.7c0 56.19 17.84 108.23 48.17 150.74a261.147 261.147 0 0 0 61 60.97c-30.33-42.5-48.17-94.53-48.17-150.73V3295.91M5099.62 4106.91v41.38h23.51c-.01-13.62-.33-27.16-.95-40.63-7.5-.35-15.01-.6-22.56-.75m-892.01 913.53h-23.33c.15 8.25.42 16.41.79 24.6 7.5.34 14.99.59 22.54.74v-25.34"/><path style="fill:#a41a27;fill-opacity:1;fill-rule:nonzero;stroke:none" d="M5685.76 2826.52H2770.69c-19.89 20.1-39.44 40.38-58.81 60.99h3034.89c56.17 0 108.19 17.83 150.69 48.13a261.422 261.422 0 0 0-61-60.99c-42.5-30.3-94.52-48.13-150.7-48.13M2446.63 3208.65a3248.295 3248.295 0 0 0-61 87.26v1810.77c0 56.2 17.84 108.23 48.17 150.73a261.337 261.337 0 0 0 60.99 60.98c-30.33-42.51-48.16-94.53-48.16-150.73V3208.65"/><path style="fill:#a31a27;fill-opacity:1;fill-rule:nonzero;stroke:none" d="M5122.18 4107.66c.62 13.47.94 27.01.95 40.63h4.48v13.14h33.01v47.84h23.51c-.04-32.87-1.85-65.29-5.34-97.25-18.71-2.03-37.58-3.5-56.61-4.36m-937.11 937.38c.88 19.03 2.34 37.9 4.39 56.61 26.08 2.84 52.45 4.56 79.15 5.11v-25.33h-27.99v-33.14h-33.01v-2.51c-7.55-.15-15.04-.4-22.54-.74M5746.77 2887.51H2711.88c-35.26 37.52-69.6 75.85-103.06 115.02 43.89-33.88 98.93-54.04 158.67-54.04h3040.27c56.18 0 108.2 17.83 150.7 48.13a260.999 260.999 0 0 0-61-60.98c-42.5-30.3-94.52-48.13-150.69-48.13M2534.99 3092.14c-30.3 38.14-59.78 77-88.36 116.51v1959.01c0 56.2 17.83 108.22 48.16 150.73a261.422 261.422 0 0 0 61 60.99c-30.33-42.51-48.16-94.54-48.16-150.74V3208.33c0-41.76 9.85-81.22 27.36-116.19"/><path style="fill:#a31a27;fill-opacity:1;fill-rule:nonzero;stroke:none" d="M5178.79 4112.02c3.49 31.96 5.3 64.38 5.34 97.25h4.48v13.13h33.01v47.85h23.51c-.07-51.39-4.46-101.74-12.83-150.76-17.67-3.01-35.51-5.5-53.51-7.47m-989.33 989.63c1.96 18 4.46 35.85 7.48 53.51 43.26 7.38 87.54 11.65 132.67 12.59v-25.34h-27.99v-33.14h-33.01v-2.51c-26.7-.55-53.07-2.27-79.15-5.11M5807.76 2948.49H2767.49c-59.74 0-114.78 20.16-158.67 54.04a3265.224 3265.224 0 0 0-73.83 89.61c-17.51 34.97-27.36 74.43-27.36 116.19v2020.31c0 56.2 17.83 108.23 48.16 150.74a261.337 261.337 0 0 0 61 60.97c-30.33-42.51-48.17-94.53-48.17-150.73V3269.31c0-143.51 116.35-259.85 259.87-259.85h3040.27c56.17 0 108.19 17.83 150.7 48.13a261.337 261.337 0 0 0-61-60.97c-42.5-30.3-94.52-48.13-150.7-48.13"/><path style="fill:#a31a27;fill-opacity:1;fill-rule:nonzero;stroke:none" d="M5868.76 3009.46H2828.49c-143.52 0-259.87 116.34-259.87 259.85v2020.31c0 56.2 17.84 108.22 48.17 150.73 16.8 23.56 37.45 44.2 61.01 60.99-30.33-42.5-48.18-94.54-48.18-150.74V3330.29c0-143.5 116.35-259.84 259.87-259.84h3040.27c56.18 0 108.2 17.83 150.71 48.14a261.508 261.508 0 0 0-61.01-61c-42.51-30.3-94.53-48.13-150.7-48.13M5232.3 4119.49c8.37 49.02 12.76 99.37 12.83 150.76h4.48v13.14h33.01v47.84h23.5c-.09-69.34-8.04-136.76-23.02-201.56a896.476 896.476 0 0 0-50.8-10.18M4196.94 5155.16c2.92 17.09 6.33 34.05 10.2 50.8 59.13 13.65 120.5 21.45 183.46 22.76v-25.33h-27.98v-33.14h-33.01v-2.5c-45.13-.94-89.41-5.21-132.67-12.59"/><path style="fill:#a31a27;fill-opacity:1;fill-rule:nonzero;stroke:none" d="M5929.76 3070.45H2889.49c-143.52 0-259.87 116.34-259.87 259.84V5350.6c0 56.2 17.85 108.24 48.18 150.74a261.252 261.252 0 0 0 60.98 60.97c-30.32-42.51-48.16-94.53-48.16-150.73V3391.27c0-143.51 116.34-259.84 259.86-259.84h3040.28c56.17 0 108.18 17.82 150.68 48.11a261.506 261.506 0 0 0-60.97-60.95c-42.51-30.31-94.53-48.14-150.71-48.14M5283.1 4129.67c14.98 64.8 22.93 132.22 23.02 201.56h4.49v13.14h33v60.98h23.44c.05-3.97.08-7.94.08-11.93 0-87.19-12.44-171.44-35.65-251.14a895.954 895.954 0 0 0-48.38-12.61M4207.14 5205.96c3.77 16.32 7.97 32.41 12.62 48.37 79.59 23.15 163.8 35.57 250.86 35.57 4.68 0 9.33-.03 13.99-.11v-25.42h-60.99v-33.14h-33.02v-2.51c-62.96-1.31-124.33-9.11-183.46-22.76M5080.61 4106.71c-4.69 0-9.33.03-14 .11v41.47h33.01v-41.38c-6.32-.13-12.67-.2-19.01-.2m-873 880.6h-23.36c-.09 5.3-.14 10.59-.14 15.91 0 5.74.06 11.51.17 17.22h23.33v-33.13"/><path style="fill:#a21a27;fill-opacity:1;fill-rule:nonzero;stroke:none" d="M5990.76 3131.43H2950.48c-143.52 0-259.86 116.33-259.86 259.84v2020.31c0 56.2 17.84 108.22 48.16 150.73a261.656 261.656 0 0 0 61.01 60.99c-30.33-42.51-48.17-94.54-48.17-150.74V3452.25c0-143.51 116.34-259.85 259.86-259.85h3040.28c56.17 0 108.19 17.83 150.69 48.13a261.084 261.084 0 0 0-61.01-60.99c-42.5-30.29-94.51-48.11-150.68-48.11m-659.28 1010.85c23.21 79.7 35.65 163.95 35.65 251.14 0 3.99-.03 7.96-.08 11.93h37.57v60.98h23.43c.05-3.98.07-7.95.07-11.94 0-104.2-17.78-204.27-50.47-297.3a899.144 899.144 0 0 0-46.17-14.81M4219.76 5254.33c4.53 15.55 9.49 30.98 14.82 46.17 92.96 32.63 192.94 50.38 297.04 50.38 4.69 0 9.33-.03 14-.1v-25.43h-61.01v-35.56c-4.66.08-9.31.11-13.99.11-87.06 0-171.27-12.42-250.86-35.57M5160.62 4161.43h-33.01v47.84h33.01v-47.84m-892.01 886.86h-27.99v33.14h27.99v-33.14M3798.34 6281.23h-18.83c7.28 5.43 15.24 9.96 23.78 13.41-1.89-4.34-3.54-8.82-4.95-13.41"/><path style="fill:#a21a27;fill-opacity:1;fill-rule:nonzero;stroke:none" d="M6051.76 3192.4H3011.48c-143.52 0-259.86 116.34-259.86 259.85v2020.31c0 56.2 17.84 108.23 48.17 150.74a261.486 261.486 0 0 0 60.99 60.97c-30.33-42.51-48.16-94.53-48.16-150.73V3513.23c0-143.5 116.34-259.84 259.86-259.84h3040.27c56.19 0 108.21 17.83 150.71 48.14a261.126 261.126 0 0 0-61.01-61c-42.5-30.3-94.52-48.13-150.69-48.13m-674.11 964.69c32.69 93.03 50.47 193.1 50.47 297.3 0 3.99-.02 7.96-.07 11.94h37.56v60.97h23.43c.06-3.97.08-7.93.08-11.92 0-120.91-23.92-236.21-67.32-341.46a890.122 890.122 0 0 0-44.15-16.83M4234.58 5300.5a880.519 880.519 0 0 0 16.85 44.15c105.16 43.31 220.4 67.22 341.19 67.22 4.68 0 9.32-.04 13.99-.11v-25.43h-60.99v-35.55c-4.67.07-9.31.1-14 .1-104.1 0-204.08-17.75-297.04-50.38M5221.62 4222.4h-33.01v47.85h33.01v-47.85m-892.01 886.87h-27.99v33.14h27.99v-33.14M3853.62 6281.23h-55.28c1.41 4.59 3.06 9.07 4.95 13.41 12.03 27.67 33.54 49.87 61 60.99-6.89-15.86-10.67-33.52-10.67-51.91v-22.49"/><path style="fill:#a21a27;fill-opacity:1;fill-rule:nonzero;stroke:none" d="M6112.75 3253.39H3072.48c-143.52 0-259.86 116.34-259.86 259.84v2020.31c0 56.2 17.83 108.22 48.16 150.73a261.274 261.274 0 0 0 61.01 60.99c-30.33-42.51-48.17-94.54-48.17-150.73V3574.21c0-143.51 116.34-259.85 259.86-259.85h3040.27c56.17 0 108.19 17.83 150.7 48.13a261.252 261.252 0 0 0-60.99-60.96c-42.5-30.31-94.52-48.14-150.71-48.14m-690.95 920.53c43.4 105.25 67.32 220.55 67.32 341.46 0 3.99-.02 7.95-.08 11.92h37.57v60.99h23.43c.05-3.98.08-7.94.08-11.93 0-137.3-30.88-267.41-86.04-383.73a893.134 893.134 0 0 0-42.28-18.71M4251.43 5344.65a887.61 887.61 0 0 0 18.72 42.28c116.25 55.09 246.27 85.92 383.47 85.92 4.68 0 9.33-.04 13.99-.11v-25.43h-61v-35.55c-4.67.07-9.31.11-13.99.11-120.79 0-236.03-23.91-341.19-67.22M5282.62 4283.39h-33.01v47.84h33.01v-47.84m-892.02 886.86h-27.98v33.14h27.98v-33.14M5358.78 6281.23H4308.61v9.02h61v35.1h899.8c40.89 0 75.95-18.12 89.37-44.12m-1444.17 0h-60.99v22.49c0 18.39 3.78 36.05 10.67 51.91 12.03 27.67 33.54 49.86 61 60.98-6.9-15.86-10.68-33.52-10.68-51.92v-83.46"/><path style="fill:#a21a27;fill-opacity:1;fill-rule:nonzero;stroke:none" d="M6173.75 3314.36H3133.48c-143.52 0-259.86 116.34-259.86 259.85v2020.32c0 56.19 17.84 108.22 48.17 150.73a261.147 261.147 0 0 0 60.99 60.98c-30.33-42.51-48.17-94.54-48.17-150.74V3635.2c0-143.51 116.35-259.85 259.87-259.85h3040.28c56.17 0 108.18 17.83 150.69 48.13a261.422 261.422 0 0 0-61-60.99c-42.51-30.3-94.53-48.13-150.7-48.13m-709.67 878.27c55.16 116.32 86.04 246.43 86.04 383.73 0 3.99-.03 7.95-.08 11.93h37.57v60.98h23.43c.06-3.98.08-7.94.08-11.93 0-153.46-38.57-297.94-106.53-424.23a882.505 882.505 0 0 0-40.51-20.48m-77.89 1038.6h-75.58v75.82a902.758 902.758 0 0 0 75.58-75.82m-1116.04 155.7a892.666 892.666 0 0 0 20.49 40.5c126.23 67.88 270.61 106.39 423.97 106.39 4.69 0 9.33-.03 14-.1v-25.43h-61v-35.55c-4.66.07-9.31.11-13.99.11-137.2 0-267.22-30.83-383.47-85.92"/><path style="fill:#a21a27;fill-opacity:1;fill-rule:nonzero;stroke:none" d="M4484.61 4333.5a902.887 902.887 0 0 0-72.05 71.85h72.05v-71.85m859 10.87h-33v60.98h33v-60.98m-859 886.86h-60.99v33.14h60.99v-33.14"/><path style="fill:#a11a27;fill-opacity:1;fill-rule:nonzero;stroke:none" d="M5425.62 6281.23h-66.84c-13.42 26-48.48 44.12-89.37 44.12h-899.8v25.88h61v35.1h899.8c52.38 0 95.21-29.74 95.21-67.7v-37.4m-1450.01 0h-61v83.46c0 18.4 3.78 36.06 10.68 51.92 12.02 27.66 33.54 49.86 61 60.97-6.9-15.85-10.68-33.51-10.68-51.91v-144.44M6234.76 3375.35H3194.48c-143.52 0-259.87 116.34-259.87 259.85v2020.3c0 56.2 17.84 108.23 48.17 150.74a261.57 261.57 0 0 0 61 60.98c-30.33-42.51-48.17-94.54-48.17-150.74V3696.17c0-143.5 116.35-259.84 259.87-259.84h3040.27c56.18 0 108.2 17.83 150.7 48.13a261.19 261.19 0 0 0-61-60.98c-42.51-30.3-94.52-48.13-150.69-48.13m-730.17 837.76c67.96 126.29 106.53 270.77 106.53 424.23 0 3.99-.02 7.95-.08 11.93h37.57v60.98h23.43c.05-3.97.08-7.94.08-11.93 0-169.45-47-327.9-128.69-463.06a898.618 898.618 0 0 0-38.84-22.15m-8 1018.12h-110.4a902.758 902.758 0 0 1-75.58 75.82v110.7a901.605 901.605 0 0 0 185.98-186.52m-1205.95 196.2a883.665 883.665 0 0 0 22.16 38.83c135.1 81.6 293.46 128.55 462.81 128.55 4.69 0 9.33-.04 14-.11v-25.43h-61v-35.55c-4.67.07-9.31.1-14 .1-153.36 0-297.74-38.51-423.97-106.39"/><path style="fill:#a11a27;fill-opacity:1;fill-rule:nonzero;stroke:none" d="M4545.62 4283.77a901.611 901.611 0 0 0-61.01 49.73v71.85h-72.05a899.004 899.004 0 0 0-49.97 60.98h183.03v-182.56m859 121.58h-94.01v60.98h94.01v-60.98m-859 825.88h-61.01v94.12h61.01v-94.12M5486.61 6281.23h-60.99v37.4c0 37.96-42.83 67.7-95.21 67.7h-899.8v60.98h960.8c52.38 0 95.2-29.74 95.2-67.7v-98.38m-1450 0h-61v144.44c0 18.4 3.78 36.06 10.68 51.91 12.02 27.67 33.53 49.87 60.99 60.98-6.89-15.85-10.67-33.51-10.67-51.9v-205.43"/><path style="fill:#a11a27;fill-opacity:1;fill-rule:nonzero;stroke:none" d="M6295.75 3436.33H3255.48c-143.52 0-259.87 116.34-259.87 259.84v2020.31c0 56.2 17.84 108.23 48.17 150.74a261.295 261.295 0 0 0 60.99 60.97c-30.32-42.51-48.16-94.53-48.16-150.72V3757.15c0-143.51 116.35-259.85 259.86-259.85h3040.28c56.17 0 108.19 17.83 150.69 48.13a261.104 261.104 0 0 0-60.99-60.97c-42.5-30.3-94.52-48.13-150.7-48.13m-752.32 798.93c81.69 135.16 128.69 293.61 128.69 463.06 0 3.99-.03 7.96-.08 11.93h37.57v60.98h23.43c.05-3.98.08-7.94.08-11.93 0-185.26-56.19-357.39-152.46-500.28a899.08 899.08 0 0 0-37.23-23.76m55.55 995.97h-102.39a901.605 901.605 0 0 1-185.98 186.52v102.63c116.88-72.95 215.73-172.06 288.37-289.15M4312.8 5466.26c7.62 12.6 15.55 25.03 23.77 37.22 142.84 96.18 314.89 152.3 500.04 152.3 4.68 0 9.33-.03 13.99-.1v-25.43h-60.99v-35.55c-4.67.07-9.31.11-14 .11-169.35 0-327.71-46.95-462.81-128.55"/><path style="fill:#a11a27;fill-opacity:1;fill-rule:nonzero;stroke:none" d="M4606.61 4242.12a900.377 900.377 0 0 0-60.99 41.65v182.56h-183.03a898.101 898.101 0 0 0-41.87 60.97h285.89v-285.18m859 224.21h-155v60.97h155v-60.97m-859 764.9h-60.99V5386.33h60.99v-155.1M5547.61 6281.23h-61v98.38c0 37.96-42.82 67.7-95.2 67.7h-960.8v60.98H5452.4c52.38 0 95.21-29.74 95.21-67.69v-159.37m-1450 0h-61v205.43c0 18.39 3.78 36.05 10.67 51.9 12.03 27.68 33.54 49.87 61 60.99-6.89-15.86-10.67-33.52-10.67-51.91v-266.41"/><path style="fill:#a11a27;fill-opacity:1;fill-rule:nonzero;stroke:none" d="M6356.75 3497.3H3316.47c-143.51 0-259.86 116.34-259.86 259.85v2020.32c0 56.19 17.84 108.21 48.16 150.72a261.274 261.274 0 0 0 61.01 60.99c-30.33-42.51-48.17-94.54-48.17-150.73V3818.14c0-143.51 116.34-259.85 259.87-259.85h3040.26c56.19 0 108.21 17.83 150.72 48.14a261.55 261.55 0 0 0-61.02-61c-42.5-30.3-94.52-48.13-150.69-48.13m-776.09 761.72c96.27 142.89 152.46 315.02 152.46 500.28 0 3.99-.03 7.95-.08 11.93h37.57v253.87c15.37-65.79 23.5-134.34 23.5-204.82 0-200.96-66.1-386.46-177.78-535.96a903.669 903.669 0 0 0-35.67-25.3m113.92 972.21h-95.6c-72.64 117.09-171.49 216.2-288.37 289.15v95.8c164.35-85.47 298.92-220.34 383.97-384.95m-1358.01 272.25c8.15 12.1 16.6 24.01 25.31 35.68 149.46 111.55 334.89 177.61 535.73 177.61 73.53 0 144.95-8.85 213.33-25.54H4850.6v-35.55c-4.66.07-9.31.1-13.99.1-185.15 0-357.2-56.12-500.04-152.3"/><path style="fill:#a11a27;fill-opacity:1;fill-rule:nonzero;stroke:none" d="M5066.61 4106.82c-89.33 1.37-175.5 15.79-256.67 41.47h256.67v-41.47m-399 100.48a895.583 895.583 0 0 0-61 34.82v285.18h-285.89a891.049 891.049 0 0 0-35.01 60.99h381.9V4207.3m859 320h-216v60.99h216v-60.99m-1319 271.13c-14.2 60.8-22.23 124.02-23.36 188.88h23.36v-188.88m460 432.8h-61V5447.31h61v-216.08M5608.61 6281.23h-61v159.37c0 37.95-42.83 67.69-95.21 67.69H4430.61v60.98h1082.8c52.38 0 95.2-29.74 95.2-67.7v-220.34m-1450 0h-61v266.41c0 18.39 3.78 36.05 10.67 51.91 12.03 27.67 33.54 49.86 61 60.98-6.89-15.86-10.67-33.52-10.67-51.92v-327.38"/><path style="fill:#a11a27;fill-opacity:1;fill-rule:nonzero;stroke:none" d="M6417.74 3558.29H3377.48c-143.53 0-259.87 116.34-259.87 259.85v2020.31c0 56.19 17.84 108.22 48.17 150.73a261.38 261.38 0 0 0 61 60.98c-30.33-42.51-48.17-94.54-48.17-150.74V3879.11c0-143.5 116.34-259.84 259.86-259.84h3040.28c56.16 0 108.18 17.82 150.68 48.11a261.506 261.506 0 0 0-60.97-60.95c-42.51-30.31-94.53-48.14-150.72-48.14m-801.41 726.03c111.68 149.5 177.78 335 177.78 535.96 0 70.48-8.13 139.03-23.5 204.82v206.13h-76.03c-85.05 164.61-219.62 299.48-383.97 384.95v75.05h-199.67c-68.38 16.69-139.8 25.54-213.33 25.54-200.84 0-386.27-66.06-535.73-177.61a902.58 902.58 0 0 0 26.82 34.15c154.92 127.73 353.45 204.43 569.91 204.43 495.12 0 896.51-401.37 896.51-896.48 0-216.53-76.79-415.16-204.59-570.11a906.688 906.688 0 0 0-34.2-26.83"/><path style="fill:#a11a27;fill-opacity:1;fill-rule:nonzero;stroke:none" d="M5127.61 4148.29h-317.67a890.851 890.851 0 0 0-142.33 59.01v380.99h-381.9c-34.36 65.69-60.81 136.14-78.1 210.14V5048.29h61v-399.02h460v-440h399V4148.29m460 440h-277v60.98h277v-60.98m-859 642.94h-61v277.06h61v-277.06"/><path style="fill:#a01a27;fill-opacity:1;fill-rule:nonzero;stroke:none" d="M5758.61 6281.23h-150v220.34c0 37.96-42.82 67.7-95.2 67.7h-1082.8v54.26c0 .77.01 1.52.05 2.28 10.61 2.87 22.13 4.44 34.16 4.44H5574.4c52.39 0 95.21-29.74 95.21-67.7v-272.3h89v-9.02m-1450 0h-150v327.38c0 18.4 3.78 36.06 10.67 51.92 12.03 27.67 33.54 49.86 61 60.98-6.89-15.86-10.67-33.52-10.67-51.92v-379.34h89v-9.02M6478.75 3619.27H3438.47c-143.52 0-259.86 116.34-259.86 259.84v2020.31c0 56.2 17.84 108.23 48.17 150.74a261.38 261.38 0 0 0 61 60.98c-30.33-42.51-48.17-94.54-48.17-150.73V3940.1c0-143.51 116.34-259.85 259.86-259.85h3040.28c56.18 0 108.2 17.83 150.71 48.14a261.635 261.635 0 0 0-61.03-61.01c-42.5-30.29-94.52-48.11-150.68-48.11m-828.22 691.88c127.8 154.95 204.59 353.58 204.59 570.11 0 495.11-401.39 896.48-896.51 896.48-216.46 0-414.99-76.7-569.91-204.43a897.16 897.16 0 0 0 28.3 32.67c159.18 144.6 370.61 232.75 602.61 232.75 495.12 0 896.5-401.38 896.5-896.49 0-232.09-88.2-443.6-232.91-602.81a906.489 906.489 0 0 0-32.67-28.28"/><path style="fill:#a01a27;fill-opacity:1;fill-rule:nonzero;stroke:none" d="M5188.61 4209.27h-460v440h-460V5109.27h61v-399.02h460v-440h399V4209.27m460 440h-338v60.98h338v-60.98m-859 581.96h-61v338.04h61v-338.04M5819.61 6290.25h-150v272.3c0 37.96-42.82 67.7-95.21 67.7H4464.82c-12.03 0-23.55-1.57-34.16-4.44 1.67 36.87 43.82 65.42 95.15 65.42H5635.4c52.38 0 95.2-29.74 95.2-67.7v-272.3h89.01v-60.98m-1450 0h-150v379.34c0 18.4 3.78 36.06 10.67 51.92 12.03 27.66 33.54 49.86 61 60.98-6.9-15.86-10.67-33.52-10.67-51.91v-379.35h89V6290.25"/><path style="fill:#a01a27;fill-opacity:1;fill-rule:nonzero;stroke:none" d="M6539.75 3680.25H3499.47c-143.52 0-259.86 116.34-259.86 259.85v2020.31c0 56.19 17.84 108.22 48.17 150.73a261.295 261.295 0 0 0 60.99 60.97c-30.33-42.51-48.16-94.53-48.16-150.72V4001.07c0-143.5 116.34-259.84 259.86-259.84h3040.27c56.18 0 108.2 17.83 150.7 48.13a261.443 261.443 0 0 0-60.98-60.97c-42.51-30.31-94.53-48.14-150.71-48.14m-856.55 659.18c144.71 159.21 232.91 370.72 232.91 602.81 0 495.11-401.38 896.49-896.5 896.49-232 0-443.43-88.15-602.61-232.75 163.99 180.44 400.57 293.73 663.61 293.73 495.11 0 896.5-401.38 896.5-896.49 0-263.13-113.36-499.78-293.91-663.79"/><path style="fill:#a01a27;fill-opacity:1;fill-rule:nonzero;stroke:none" d="M5249.61 4270.25h-460v440h-460V5170.25H4390.6v-399.02h460v-440h399.01V4270.25m460 440h-399v60.98h399v-60.98m-859.01 520.98h-60.99V5630.25h60.99v-399.02M5880.6 6351.23h-150v272.3c0 37.96-42.82 67.7-95.2 67.7H4525.81c-51.33 0-93.48-28.55-95.15-65.42-.04-.76-.05-1.51-.05-2.28v-272.3h-150v379.35c0 18.39 3.77 36.05 10.67 51.91 17.44 40.12 54.83 68.74 101.39 68.74h1375.89c64.95 0 112.04-55.7 112.04-120.65v-379.35"/><path style="fill:#a01a27;fill-opacity:1;fill-rule:nonzero;stroke:none" d="M6600.74 3741.23H3560.47c-143.52 0-259.86 116.34-259.86 259.84v2020.32c0 56.19 17.83 108.21 48.16 150.72 47.12 66.05 124.38 109.12 211.7 109.12h3040.27c143.52 0 259.86-116.34 259.86-259.84V4001.07c0-87.33-43.08-164.6-109.16-211.71-42.5-30.3-94.52-48.13-150.7-48.13m-1534.13 365.59c4.67-.08 9.31-.11 14-.11 6.34 0 12.69.07 19.01.2 7.55.15 15.06.4 22.56.75 19.03.86 37.9 2.33 56.61 4.36 18 1.97 35.84 4.46 53.51 7.47 17.09 2.91 34.05 6.32 50.8 10.18 16.32 3.77 32.41 7.97 48.38 12.61 15.55 4.53 30.98 9.48 46.17 14.81 14.9 5.23 29.63 10.85 44.15 16.83a893.134 893.134 0 0 1 42.28 18.71c13.7 6.49 27.21 13.32 40.51 20.48a898.618 898.618 0 0 1 38.84 22.15 899.08 899.08 0 0 1 72.9 49.06 906.688 906.688 0 0 1 34.2 26.83c11.12 9.17 22.01 18.6 32.67 28.28 180.55 164.01 293.91 400.66 293.91 663.79 0 495.11-401.39 896.49-896.5 896.49-263.04 0-499.62-113.29-663.61-293.73a897.16 897.16 0 0 1-28.3-32.67 902.58 902.58 0 0 1-26.82-34.15 904.243 904.243 0 0 1-25.31-35.68 895.174 895.174 0 0 1-23.77-37.22 883.665 883.665 0 0 1-22.16-38.83c-7.16-13.31-14-26.81-20.49-40.5a887.61 887.61 0 0 1-18.72-42.28c-6-14.54-11.61-29.23-16.85-44.15a899.238 899.238 0 0 1-14.82-46.17 884.078 884.078 0 0 1-12.62-48.37 896.563 896.563 0 0 1-10.2-50.8 887.357 887.357 0 0 1-7.48-53.51 902.347 902.347 0 0 1-4.39-56.61c-.37-8.19-.64-16.35-.79-24.6-.11-5.71-.17-11.48-.17-17.22 0-5.32.05-10.61.14-15.91 1.13-64.86 9.16-128.08 23.36-188.88 17.29-74 43.74-144.45 78.1-210.14a891.049 891.049 0 0 1 35.01-60.99 898.101 898.101 0 0 1 41.87-60.97 899.004 899.004 0 0 1 49.97-60.98 901.611 901.611 0 0 1 133.06-121.58 900.377 900.377 0 0 1 60.99-41.65c19.82-12.37 40.19-24 61-34.82a890.851 890.851 0 0 1 142.33-59.01c81.17-25.68 167.34-40.1 256.67-41.47"/><path style="fill:#a01a27;fill-opacity:1;fill-rule:nonzero;stroke:none" d="M5310.61 4331.23H4850.6v440h-460V5231.23h460v460h460.01v-460h460v-460h-460v-440"/></g><path style="fill:#fff;fill-opacity:1;fill-rule:nonzero;stroke:none" d="M4430.61 6623.53c0 37.96 42.82 67.7 95.21 67.7H5635.4c52.38 0 95.21-29.74 95.21-67.7v-272.3h150v379.35c0 64.95-47.1 120.65-112.06 120.65H4392.67c-64.96 0-112.06-55.7-112.06-120.65v-379.35h150v272.3M5080.61 4106.71c-495.12 0-896.49 401.38-896.49 896.51 0 495.11 401.37 896.49 896.49 896.49 495.11 0 896.5-401.38 896.5-896.49 0-495.13-401.39-896.51-896.5-896.51zm1520.13 2174.52H3560.47c-143.52 0-259.86-116.34-259.86-259.84V4001.07c0-143.5 116.34-259.84 259.86-259.84h3040.27c143.52 0 259.87 116.34 259.87 259.84v2020.32c0 143.5-116.35 259.84-259.87 259.84" transform="matrix(.13333 0 0 -.13333 0 1332.16)"/><path style="fill:#fff;fill-opacity:1;fill-rule:nonzero;stroke:none" d="M5310.61 5691.23h-460v-460h-460v-460h460v-440h460v440h460v460h-460v460" transform="matrix(.13333 0 0 -.13333 0 1332.16)"/></svg>