<svg xmlns="http://www.w3.org/2000/svg" height="1066.667" width="1066.667" xml:space="preserve"><path style="fill:#95baa8;fill-opacity:1;fill-rule:nonzero;stroke:none" d="M0 0h8000v8000H0z" transform="matrix(.13333 0 0 -.13333 0 1066.667)"/><path style="fill:#89aa9a;fill-opacity:1;fill-rule:nonzero;stroke:none" d="M4287.57 1391.37h-232.25c-21.38 0-39.44 14.52-44.6 34.19a45.032 45.032 0 0 0-1.62 11.94v1.52c0 4.09.7 7.97 1.7 11.75H1746.62c.99-3.78 1.69-7.66 1.69-11.75v-1.52c0-4.11-.57-8.12-1.62-11.94-5.16-19.67-23.11-34.19-44.6-34.19h-232.15c-21.49 0-39.44 14.52-44.6 34.19a45.032 45.032 0 0 0-1.62 11.94v1.52c0 4.14.72 8.09 1.74 11.91-123.24 3.34-222.14 104.13-222.14 228.17v1844.71c0 126.06 102.27 228.34 228.42 228.34h674.66v509.73c0 74.23 48.95 137.18 116.27 158.32l-5.3 10.81c-5.77 11.76 1.18 25.75 14 28.43 13.21 2.75 26.9 4.19 40.92 4.19h69.69c-.72 11.76-.74 23.91-.66 36.83.19 30.7.9 65.78-6.22 110.81-3.16 20.12-3.47 53.32-1.93 93.93 5.08 134.27 30.69 350.57 42.6 451.14 2.72 22.98 4.38 55.59 5 94.46l-4.81-.24c-.51-.03-1.02-.04-1.53-.04-14.73 0-27.18 10.84-28.46 25.11l-2.66 29.5c-18.86 1.51-34.41 15.71-37.29 34.74L1907.5 8000h1196.52l31.38-2609.51c0-22.63-18.33-40.97-41.06-40.97l-2.68-.16 1.94-35.15c.84-15.17-11.28-28.11-27.06-28.91l-53.13-2.67c.4-3.28.81-6.5 1.22-9.59.2-1.46.4-2.85.59-4.26.38-2.74.78-5.41 1.17-7.99.14-.94.28-1.93.43-2.85.53-3.37 1.07-6.57 1.62-9.62l.4-2.2c.59-3.15 1.18-6.17 1.79-8.94 7.44-34.16 43.88-72.76 74.47-103.54 13.23-13.31 25.4-25.19 33.61-34.58 11.88-13.62 33.41-41.69 59.63-74.86 7.94-10.03 16.3-20.53 24.96-31.24-27.32-30.71-43.93-71.14-43.93-115.39V4343.8H2462.9c-69.69 0-132.41-29.8-176.13-77.34h-14.48c-2.51 0-4.57-2.06-4.57-4.58v-18.94c-27.72-39.04-44.02-86.74-44.02-138.24V2173c0-129.83 103.44-235.41 232.4-239.01-1.04-3.95-1.6-8.11-1.6-12.39v-1.6c0-4.3.6-8.5 1.7-12.5 5.4-20.6 24.2-35.8 46.7-35.8H2746c22.5 0 41.3 15.2 46.7 35.8 1.1 4 1.7 8.2 1.7 12.5v1.6c0 4.25-.55 8.37-1.58 12.3h1744.57v-254.8c0-118.48-90.23-215.81-205.65-227.2 1.2-4.12 2.05-8.38 2.05-12.88v-1.52c0-4.11-.58-8.12-1.62-11.94-5.16-19.67-23.21-34.19-44.6-34.19M3704.59 4343.8h-366.28v512.9c2.67-2.28 5.32-4.46 7.93-6.54l1.12-.97c4.97-4 9.7-8.11 14.21-12.29 1.69-1.57 3.26-3.18 4.89-4.77 3.16-3.08 6.23-6.18 9.15-9.34 1.61-1.74 3.18-3.48 4.72-5.24 2.84-3.24 5.55-6.51 8.17-9.8 1.25-1.58 2.54-3.14 3.74-4.73 3.4-4.5 6.62-9.02 9.62-13.57l.72-1.05c3.29-5.05 6.3-10.1 9.12-15.16.65-1.18 1.24-2.36 1.87-3.53 2.1-3.92 4.08-7.81 5.91-11.7.65-1.37 1.26-2.72 1.87-4.08 1.76-3.89 3.38-7.75 4.87-11.59.42-1.08.86-2.15 1.27-3.22 2.51-6.73 4.62-13.31 6.39-19.73.47-1.72.95-3.43 1.38-5.12.47-1.89.9-3.73 1.31-5.58.37-1.63.7-3.24 1.02-4.85.35-1.74.7-3.48.99-5.19.37-2.15.66-4.23.95-6.31.28-2.06.52-4.06.73-6.05.19-1.9.37-3.79.5-5.62.09-1.29.14-2.55.2-3.81.08-1.74.11-3.43.12-5.1.01-1.1.03-2.2 0-3.26-.03-2.22-.14-4.34-.3-6.39l-.05-1.1c-.37-4.19-.54-9.54-.63-15.52-.12-8.76-.01-19.14.28-30.99.46-18.92 1.28-41.16 2.02-65.08l-.02.11v-.1c.87-27.37 1.6-56.85 1.55-85.8h116.57c17.98 0 35.46-2.38 52.09-6.85 12.27-3.3 18.58-16.88 12.93-28.26l-5.87-11.84c35.99-13.81 66.02-39.78 84.94-72.88" transform="matrix(.13333 0 0 -.13333 0 1066.667)"/><path style="fill:#6d6e71;fill-opacity:1;fill-rule:nonzero;stroke:none" d="M2794.4 1921.6v-1.6c0-4.3-.6-8.5-1.7-12.5-5.4-20.6-24.2-35.8-46.7-35.8h-243.1c-22.5 0-41.3 15.2-46.7 35.8-1.1 4-1.7 8.2-1.7 12.5v1.6c0 26.7 21.6 48.4 48.4 48.4H2746c26.8 0 48.4-21.7 48.4-48.4M5501.8 1921.6v-1.6c0-4.3-.6-8.5-1.7-12.5-5.4-20.6-24.3-35.8-46.7-35.8h-243.2c-22.4 0-41.3 15.2-46.7 35.8-1.1 4-1.7 8.2-1.7 12.5v1.6c0 26.7 21.69 48.4 48.4 48.4h243.2c26.7 0 48.4-21.7 48.4-48.4" transform="matrix(.13333 0 0 -.13333 0 1066.667)"/><path style="fill:#656669;fill-opacity:1;fill-rule:nonzero;stroke:none" d="M2792.7 1907.5h-336.5c-1.1 4-1.7 8.2-1.7 12.5v1.6c0 4.28.56 8.44 1.6 12.39 2.26-.06 4.53-.09 6.8-.09h329.92c1.03-3.93 1.58-8.05 1.58-12.3v-1.6c0-4.3-.6-8.5-1.7-12.5M5500.1 1907.5h-336.6c-1.1 4-1.7 8.2-1.7 12.5v1.6c0 4.25.55 8.37 1.58 12.3h312.52c8.09 0 16.1.4 23.99 1.18a48.36 48.36 0 0 0 1.91-13.48v-1.6c0-4.3-.6-8.5-1.7-12.5" transform="matrix(.13333 0 0 -.13333 0 1066.667)"/><path style="fill:#f1be9b;fill-opacity:1;fill-rule:nonzero;stroke:none" d="M4506.69 4895.09s-.11-1.34.56-2.34c-.37 1.53-.54 2.36-.54 2.36s3.92.1 9.76 2.42c14.83 6.19 42.03 27.16 49.5 99 5.66 53.8 4.25 122.71 2.39 182.15-1.56 51.42-3.57 95.74-1.74 116.86 1.51 17.22-.87 40.73-8.74 66.75l-111.26-206.45c.77-30.48 60.07-260.75 60.07-260.75" transform="matrix(.13333 0 0 -.13333 0 1066.667)"/><path style="fill:#e6e7e8;fill-opacity:1;fill-rule:nonzero;stroke:none" d="M4696.74 4230.08c0-2.53-2.16-4.69-4.7-4.69H3343.09c-2.63 0-4.78 2.16-4.78 4.69v647.49c0 2.63 2.15 4.79 4.78 4.79h1348.95c2.54 0 4.7-2.16 4.7-4.79v-647.49m-4.7 821.22H3343.09c-95.83 0-173.72-77.9-173.72-173.73v-647.49c0-95.73 77.89-173.63 173.72-173.63h1348.95c95.73 0 173.63 77.9 173.63 173.63v647.49c0 95.83-77.9 173.73-173.63 173.73" transform="matrix(.13333 0 0 -.13333 0 1066.667)"/><path style="fill:#d2d3d4;fill-opacity:1;fill-rule:nonzero;stroke:none" d="M3169.37 4343.8h168.938v104.391H3169.37zM4696.74 4343.8h168.93v104.391h-168.93z" transform="matrix(.13333 0 0 -.13333 0 1066.667)"/><path style="fill:#e6e7e8;fill-opacity:1;fill-rule:nonzero;stroke:none" d="M5715 4104.7V2173c0-132.1-107.1-239.1-239.1-239.1h-3013c-132.1 0-239.2 107-239.2 239.1v1931.7c0 132 107.1 239.1 239.2 239.1h3013c132 0 239.1-107.1 239.1-239.1" transform="matrix(.13333 0 0 -.13333 0 1066.667)"/><path style="fill:#d2d3d4;fill-opacity:1;fill-rule:nonzero;stroke:none" d="M5475.9 1933.9h-3013c-2.27 0-4.54.03-6.8.09-128.96 3.6-232.4 109.18-232.4 239.01v482.8l51.7-371.2c0-130.1 105.5-235.5 235.6-235.5h2916.8c130.1 0 235.5 105.4 235.5 235.5l51.7 370.8V2173c0-132.1-107.1-239.1-239.1-239.1" transform="matrix(.13333 0 0 -.13333 0 1066.667)"/><path style="fill:#d2d3d4;fill-opacity:1;fill-rule:nonzero;stroke:none" d="M4025.94 2215.63c-443.94 0-803.83 359.88-803.83 803.81 0 15.07.42 30.01 1.24 44.88 5.2-93.97 26.56-183.64 61.25-266.22 62.3-148.2 167.8-273.8 300.7-361 126.5-83.2 278-131.5 440.6-131.5 315.7 0 588.8 181.9 720.3 446.6l.3.49c46.96 94.63 75.84 199.96 82.04 311.29.81-14.76 1.22-29.58 1.22-44.54 0-443.93-359.89-803.81-803.82-803.81" transform="matrix(.13333 0 0 -.13333 0 1066.667)"/><path style="fill:#be1e2d;fill-opacity:1;fill-rule:nonzero;stroke:none" d="M4829.81 3109.4c0-128.1-30.01-249.3-83.31-356.71l-.3-.49c-131.5-264.7-404.6-446.6-720.3-446.6-162.6 0-314.1 48.3-440.6 131.5-132.9 87.2-238.4 212.8-300.7 361-40.2 95.7-62.5 200.9-62.5 311.3 0 444 359.9 803.9 803.8 803.9 244.8 0 464-109.4 611.5-282 119.9-140.4 192.41-322.7 192.41-521.9" transform="matrix(.13333 0 0 -.13333 0 1066.667)"/><path style="fill:#e6e7e8;fill-opacity:1;fill-rule:nonzero;stroke:none" d="M4491.39 3225.85h-349.05v349.05h-232.81v-349.05h-349.05v-232.81h349.05V2644h232.81v349.04h349.05v232.81" transform="matrix(.13333 0 0 -.13333 0 1066.667)"/><path style="fill:#6d6e71;fill-opacity:1;fill-rule:nonzero;stroke:none" d="m4760.14 5052.07-97.07-195.64a20.886 20.886 0 0 0-18.71-11.61H3401.54c-7.97 0-15.25 4.54-18.76 11.69l-97.2 198.17c-6.04 12.32 1.23 26.96 14.66 29.76 13.83 2.89 28.17 4.4 42.85 4.4h1348.95c18.83 0 37.14-2.5 54.55-7.18 12.85-3.45 19.45-17.68 13.55-29.59" transform="matrix(.13333 0 0 -.13333 0 1066.667)"/><path style="fill:#e8b087;fill-opacity:1;fill-rule:nonzero;stroke:none" d="M3952.92 4663.27c5.82 1.02 11.33 2.6 16.46 4.78 0 0-60.66 50.92-87.29 61.08 1.37-1.46 38.24-40.22 70.83-65.86M4259.99 4600.27c3.85 2.98 7.6 6.2 11.27 9.77 0 0-46.53 102.77-67.32 131.48 0 0 42.87-120.21 56.05-141.25" transform="matrix(.13333 0 0 -.13333 0 1066.667)"/><path style="fill:#f1be9b;fill-opacity:1;fill-rule:nonzero;stroke:none" d="M4260.01 4600.27c3.82 3 7.58 6.18 11.26 9.74 0 0 154.36-164.28 253.53 3.42 0 0 64.73 53.5 27.3 148.36-32.27 81.63-42.6 121.45-44.85 130.96-.67 1-.56 2.34-.56 2.34s-59.3 230.27-60.07 260.75l111.26 206.45c-12.87 42.53-40.49 91.77-90.19 131.3-80.06 63.71-193.1 220.87-227.82 260.65-28.44 32.52-102 93.37-113.16 144.62-5.68 26-10.52 68.29-14.7 119.99-2.54 31.79-4.83 67.2-6.94 104.57-2.57 45.71-4.8 94.38-6.77 143.18-.21 5.3-.43 10.56-.64 15.86-.72 17.82-1.38 35.61-2.02 53.21-.07 2.41-.18 4.77-.25 7.18-5.45 148.82-8.8 284.01-12.17 320.03-7.31 78.76 67.48 1227.06 67.48 1227.06l3.04 697.15-44.76-3.21-994.98 89-89.2-6.3 236.94-1330.63s74.68-555.4 130.71-740.06c21.94-72.44 38.26-187.24 48.98-308.27.26-3.16.56-6.31.82-9.46 2.08-24.01 3.94-48.22 5.58-72.41.29-4.53.62-9.11.91-13.65a4459.3 4459.3 0 0 0 5.23-99.66c.91-22.91 1.65-45.29 2.13-66.89 2.15-90.44.59-167.38-4.63-211.31-16.25-137.16-56.86-480.07-42.61-570.8 14.33-90.69-1.64-143.02 14.19-197.78 15.74-54.67 4.75-92.64 26.03-128.39 9.72-16.45 17.88-38.93 30.62-60.01 14.96-24.74 36.3-47.57 74.24-56.6 34.24-8.12 73.23-18.4 108.4-30.11 14.38-4.76 28.11-9.71 40.66-14.89l.01-.08c19.85-8.11 36.78-16.73 48.38-25.56 34-25.67 137.24-78.35 201.51-66.73 5.82 1.02 11.36 2.59 16.46 4.76l.14-.08c4.63-4.05 179.42-153.81 290.51-67.7" transform="matrix(.13333 0 0 -.13333 0 1066.667)"/><path style="fill:#95baa8;fill-opacity:1;fill-rule:nonzero;stroke:none" d="M3585.2 4858.77c2.36-5.41 6.28-11.24 11.33-17.29-6.82 9.48-10.43 15.69-11.33 17.29" transform="matrix(.13333 0 0 -.13333 0 1066.667)"/><path style="fill:#88a999;fill-opacity:1;fill-rule:nonzero;stroke:none" d="M3702.98 4755.65c-8.05 3.32-16.6 6.56-25.49 9.72 8.86-3.13 17.36-6.35 25.39-9.66.07-.04.1-.06.1-.06" transform="matrix(.13333 0 0 -.13333 0 1066.667)"/><path style="fill:#dbad8d;fill-opacity:1;fill-rule:nonzero;stroke:none" d="M3702.88 4755.71c-8.03 3.31-16.53 6.53-25.39 9.66-4.95 1.76-10.01 3.49-15.15 5.21-32.75 28.55-53.82 54.29-65.57 70.6 31.17-37.6 103.07-83.53 106.11-85.47" transform="matrix(.13333 0 0 -.13333 0 1066.667)"/><path style="fill:#e8b087;fill-opacity:1;fill-rule:nonzero;stroke:none" d="M3479.72 4857.25c-15.21 40.34-21.49 86.1-24.57 119.26-5.6 60.33-25.94 103.91-26.53 128.32-.58 24.4 13.95 94.31-3.21 166.58-17.18 72.27 26.67 377.92 44.09 466.26 17.41 88.34 19.51 293.93 32 481.59 8.77 131.74-42.7 342.23-74.15 456-12.88 46.57-21.73 94.13-26.18 142.25-28.49 308.32-230.46 1515.67-287.17 1855.4l-89.22-6.35 236.94-1330.6s74.69-555.43 130.7-740.09c56.02-184.65 75.27-644.5 59.03-781.66-16.25-137.15-56.86-480.04-42.57-570.75 14.29-90.7-1.64-143.05 14.13-197.77 15.77-54.72 4.8-92.67 26.06-128.41 9.77-16.45 17.86-38.95 30.65-60.03" transform="matrix(.13333 0 0 -.13333 0 1066.667)"/><path style="fill:#ffccab;fill-opacity:1;fill-rule:nonzero;stroke:none" d="M4568.38 5178.67c-1.58 51.45-3.6 95.76-1.75 116.85 3.99 45.42-18.85 134.36-98.96 198.07-80.06 63.71-193.09 220.88-227.78 260.64-28.47 32.54-102.03 93.36-113.18 144.61-28.81 132.28-36.11 685.26-43.5 764.03-7.32 78.77 67.48 1227.06 67.48 1227.06l3.03 697.14-44.72-3.21c14.51-93.06 14.34-609.73 2.6-720.39-16.33-154-20.11-550.5-43.63-792.32-23.59-241.83-20.33-721.32-1.4-994.15 18.89-272.83 95.17-291.99 129.95-329.08 34.75-37.14 48.99-28.66 112.82-121.52 63.82-92.86 147.92-179.03 188.86-198.87 30.38-14.66 52.95-152.58 70.18-248.86" transform="matrix(.13333 0 0 -.13333 0 1066.667)"/><path style="fill:#00a79d;fill-opacity:1;fill-rule:nonzero;stroke:none" d="m3411.67 6034.47 8.57-95.34c1.39-15.46 15.28-27.07 31.4-26.26l723.15 36.39c16.53.83 29.22 14.38 28.34 30.26l-6.52 117.74c-.9 16.22-15.57 28.51-32.42 27.14l-725.21-58.78c-16.5-1.34-28.74-15.3-27.31-31.15" transform="matrix(.13333 0 0 -.13333 0 1066.667)"/><path style="fill:#e8b087;fill-opacity:1;fill-rule:nonzero;stroke:none" d="m4550.43 5088.84-68.97 27.51s-15.19 32.7-12.32 43.98c2.87 11.28 44.69 120.22 44.69 120.22l-67.21-124.71 4.2-27.28 8.26-38.69 91.35-1.03" transform="matrix(.13333 0 0 -.13333 0 1066.667)"/><path style="fill:#e6e7e8;fill-opacity:1;fill-rule:nonzero;stroke:none" d="M4246.9 6059.4c0-23.7-19.2-42.9-43-42.9l-127.2-7.6-655.8-39.2c-21.3 0-39.3 15.6-42.5 36.7L2950.6 8862h1262.6l33.7-2802.6" transform="matrix(.13333 0 0 -.13333 0 1066.667)"/><path style="fill:#fff;fill-opacity:1;fill-rule:nonzero;stroke:none" d="M4246.9 6059.4c0-23.7-19.2-42.9-43-42.9l-127.2-7.6c9.6 686.6-101.5 2324.1-138.9 2853.1h275.4l33.7-2802.6" transform="matrix(.13333 0 0 -.13333 0 1066.667)"/><path style="fill:#ebeced;fill-opacity:1;fill-rule:nonzero;stroke:none" d="M4637.4 3631.3c-.25.29-.49.57-.74.87.25-.29.49-.58.74-.87m-.96 1.12c-.03.04-.04.05-.08.09.03-.03.06-.06.08-.09" transform="matrix(.13333 0 0 -.13333 0 1066.667)"/><path style="fill:#cb4b57;fill-opacity:1;fill-rule:nonzero;stroke:none" d="M3284.6 2798.1c-36.98 88.04-58.58 184.19-61.84 284.96-.29 8.21-.58 16.41-.62 24.68l-.04 1.66c0 444 359.9 803.9 803.8 803.9 13.55 0 27.01-.39 40.39-1.05l1.5-.06a819.41 819.41 0 0 0 38.33-2.92c1.17-.12 2.34-.23 3.5-.34 12.42-1.29 24.75-2.86 36.99-4.7 1.24-.19 2.47-.38 3.7-.58 12.33-1.91 24.55-4.08 36.68-6.54l2.56-.55a799.345 799.345 0 0 0 75.15-19.35l.37-.12c11.95-3.72 23.77-7.74 35.48-12 .95-.35 1.93-.69 2.89-1.04 11.31-4.17 22.5-8.59 33.56-13.24 1.19-.5 2.37-1 3.57-1.5 11-4.69 21.89-9.6 32.65-14.76.99-.48 1.96-.97 2.95-1.44 11.03-5.35 21.94-10.9 32.67-16.73l.81-.45c22.13-12.04 43.61-25.12 64.42-39.12l1.97-1.3c9.91-6.72 19.64-13.66 29.23-20.79.97-.73 1.94-1.44 2.89-2.16 9.48-7.11 18.78-14.42 27.91-21.94l2.58-2.13c9.3-7.71 18.44-15.6 27.38-23.7l1.09-1.02a806.036 806.036 0 0 0 53.8-53.84l.02-.02c5.21-5.73 10.37-11.51 15.42-17.4.04-.04.05-.05.08-.09.07-.09.15-.17.22-.25.25-.3.49-.58.74-.87l-.35.02c120.05-140.45 192.71-322.63 192.71-521.88 0-9.5-.4-18.9-.73-28.33-7.53 217.14-101.2 412.33-247.82 552.61-11.32.28-22.5.41-33.67.41-147.57 0-282.36-23.79-405.2-65.26v6.03h-232.81v-112.37c-113.22-66.15-213.75-147.44-302.57-236.68h-46.48v-48.54c-110.98-120.39-202.21-252.23-275.88-379.21" transform="matrix(.13333 0 0 -.13333 0 1066.667)"/><path style="fill:#ebeced;fill-opacity:1;fill-rule:nonzero;stroke:none" d="M3560.48 3177.31v48.54h46.48a1751.689 1751.689 0 0 1-46.48-48.54m349.05 285.22v112.37h232.81v-6.03c-82.97-28.01-160.48-64.07-232.81-106.34" transform="matrix(.13333 0 0 -.13333 0 1066.667)"/><path style="fill:#f1f2f2;fill-opacity:1;fill-rule:nonzero;stroke:none" d="M5715 4104.7V4000c-105 239.37-231.67 239.37-231.67 239.37s-2926.63 23.93-3080.03.03c-153.3-24-179.6-239.4-179.6-239.4v104.7c0 132 107.1 239.1 239.2 239.1h3013c132 0 239.1-107.1 239.1-239.1" transform="matrix(.13333 0 0 -.13333 0 1066.667)"/><path style="fill:#ae1e2c;fill-opacity:1;fill-rule:nonzero;stroke:none" d="M4025.9 2305.6c-162.6 0-314.1 48.3-440.6 131.5l-.1.2s179.5-74.94 412.99-74.95c237.4-.02 530.62 77.43 748.01 389.85-131.5-264.7-404.6-446.6-720.3-446.6" transform="matrix(.13333 0 0 -.13333 0 1066.667)"/></svg>